<svg xmlns="http://www.w3.org/2000/svg" viewBox="0 0 53.52 13.23"><g style="stroke-width:1.84693"><g style="stroke-width:1.84693"><path d="M92.62 76.82c-2.26 0-3.73.7-4.93 1.81-1.2 1.11-1.58 2.54-1.58 4.38 0 1.9.47 3.58 1.59 4.8a6 6 0 0 0 4.65 1.73 5.7 5.7 0 0 0 3.26-1.07c1.07 1.02 2.87 1.02 4.45 1.02l.04-2.84h-1.47c-1.15 0-1.11-1.56-1.11-1.56l.01-7.77s-2.24-.5-4.91-.5zm-.42 2.82c1.8-.02 2.4.3 2.4.3l-.05 5.5s-.74 1.13-2.26 1.17c-1.28.03-1.97-.28-2.44-.8-.47-.5-.8-1.38-.8-2.8 0-1.28.23-1.77.72-2.33a2.97 2.97 0 0 1 2.43-1.04z" style="stroke-width:1.84693;stroke-linecap:square" transform="matrix(.541 0 0 .541 -40.06 -38.7)"/></g><path d="M44.87 71.49v2.93h5.18l.02 10.71c0 4.36 1.6 4.36 1.6 4.36h2.93s-1.6 0-1.6-4.36l-.02-10.71h5.19v-2.93h-9.8z" style="stroke-width:1.84693" transform="matrix(.541 0 0 .541 -24.3 -38.7)"/><path d="M77.88 76.82s-2.42 0-3.86 1.17c-1.62 1.3-1.62 4.35-1.62 4.35v7.03l2.92-.01v-7.02s-.04-1.42.8-2.04c.86-.62 1.76-.55 1.76-.55h1.47v-2.93zM113.57 77.12l-2.03.3v12.07l2.95-.03v-9.5s.39-.2 1.92-.2c.39 0 1.8.18 1.92 3.03.02 2.24 0 6.7 0 6.7h2.9v-6.7s.09-2.02-.24-2.48c.4-.23 1.18-.55 2.55-.52.75.01 1.88.42 1.88 3v6.7l2.93.01v-6.7c0-1.76.08-2.76-.8-3.9a5.33 5.33 0 0 0-3.9-2.08c-2.41 0-3.06.22-4.48.62-.46-.41-1.39-.62-2.75-.61-1.37 0-2.12.13-2.85.29zM91.8 76.86a5.8 5.8 0 0 0-4.09 1.63A6.4 6.4 0 0 0 86.07 83c-.02 2.34.82 4.13 2.1 5.18a6.2 6.2 0 0 0 4.1 1.36c1.86-.05 2.52-.35 3.14-.61.62-.26 1.83-.98 1.83-.98l-.95-2.19s-.8.5-1.52.8c-.72.28-.97.36-2.76.32-1.95-.12-2.72-.91-3.14-2.22 1.26.28 3.51.44 4.64.18a3.96 3.96 0 0 0 2.35-1.32c.56-.66.91-1.6.91-2.64 0-.67-.18-1.61-.96-2.51-.79-.9-2.18-1.55-4-1.51zm.08 2.78c1-.04 1.41.24 1.72.65.3.42.3.92.03 1.33-.27.42-1.17.58-1.85.58-.68 0-2.87-.05-2.87-.05s.02-1.13.67-1.78c.64-.64 1.3-.7 2.3-.73zM104.03 76.86a5.8 5.8 0 0 0-4.1 1.63A6.4 6.4 0 0 0 98.3 83c-.02 2.34.82 4.13 2.1 5.18a6.2 6.2 0 0 0 4.1 1.36c1.85-.05 2.51-.35 3.14-.61.62-.26 1.83-.98 1.83-.98l-.96-2.19s-.79.5-1.51.8c-.72.28-.97.36-2.76.32-1.95-.12-2.73-.91-3.14-2.22 1.26.28 3.51.44 4.64.18a3.96 3.96 0 0 0 2.35-1.32c.56-.66.91-1.6.91-2.64 0-.67-.18-1.61-.97-2.51-.78-.9-2.17-1.55-4-1.51zm.08 2.78c1-.04 1.41.24 1.71.65.3.42.3.92.03 1.33-.27.42-1.16.58-1.84.58-.68 0-2.87-.05-2.87-.05s.02-1.13.66-1.78c.65-.64 1.3-.7 2.3-.73z" style="stroke-width:1.84693;stroke-linecap:square" transform="matrix(.541 0 0 .541 -24.3 -38.7)"/><g style="stroke-width:1.84693"><path d="M78.46 95.92s2.42 0 3.86-1.16c1.62-1.31 1.62-4.36 1.62-4.36V76.82l-2.92.02V90.4s.04 1.42-.8 2.04c-.86.62-1.76.55-1.76.55h-1.47v2.93z" style="stroke-width:1.84693;stroke-linecap:square" transform="matrix(.541 0 0 .541 -24.3 -38.7)"/><path d="M84.3 73.3a1.82 1.82 0 0 1-1.83 1.83 1.82 1.82 0 0 1-1.82-1.82 1.82 1.82 0 0 1 1.82-1.82 1.82 1.82 0 0 1 1.83 1.82z" style="stroke-width:5.41149;stroke-linecap:square" transform="matrix(.541 0 0 .541 -24.3 -38.7)"/></g><g style="stroke-width:1.84693"><g style="stroke-width:1.84693"><path d="M93.1 77.04a8.93 8.93 0 0 0-3.5.65 7.26 7.26 0 0 0-3 2.22c-.73.95-.98 2.55-.94 4.18.04 1.63.42 2.95 1.44 3.94a6.05 6.05 0 0 0 4.2 1.5 5.42 5.42 0 0 0 3.45-1.32c.69.7 1.6 1.35 2.94 1.37l1.47.01.03-2.93-1.23-.01c-.55-.01-1.4-.4-1.4-1.25v-8.02s-2.22-.35-3.45-.34zm.5 3.08v4.97a2.68 2.68 0 0 1-2.44 1.55c-1.08 0-1.73-.25-2.17-.87a3.09 3.09 0 0 1-.6-1.7c-.09-.86.04-2.11.8-2.88a3.2 3.2 0 0 1 2.16-1.07c.9-.13 2.25 0 2.25 0z" style="stroke-width:1.84693;stroke-linecap:square" transform="matrix(.541 0 0 .541 -.19 -38.75)"/></g><path d="M143.07 73.47a1.82 1.82 0 0 1-1.82 1.82 1.82 1.82 0 0 1-1.82-1.82 1.82 1.82 0 0 1 1.82-1.82 1.82 1.82 0 0 1 1.82 1.82zM138.19 73.79a1.82 1.82 0 0 1-1.82 1.82 1.82 1.82 0 0 1-1.82-1.82 1.82 1.82 0 0 1 1.82-1.82 1.82 1.82 0 0 1 1.82 1.82z" style="fill:#e24f32;fill-opacity:1;stroke-width:5.41149;stroke-linecap:square" transform="matrix(.541 0 0 .541 -25.73 -38.7)"/></g></g></svg>
